<svg width="31" height="30" viewBox="0 0 31 30" fill="none" xmlns="http://www.w3.org/2000/svg">
<g clip-path="url(#clip0)">
<path d="M20.0386 24.656C20.0876 24.6641 20.1362 24.6681 20.1842 24.6681C20.6061 24.6681 20.9784 24.3634 21.0501 23.9335L21.929 18.6601C22.0088 18.1813 21.6853 17.7284 21.2065 17.6486C20.7277 17.5686 20.2749 17.8923 20.1951 18.3711L19.3162 23.6445C19.2364 24.1233 19.5598 24.5762 20.0386 24.656Z"/>
<path d="M9.58961 23.9337C9.66127 24.3636 10.0336 24.6683 10.4555 24.6683C10.5035 24.6683 10.5521 24.6644 10.6011 24.6562C11.0799 24.5763 11.4033 24.1235 11.3235 23.6447L10.4446 18.3713C10.3648 17.8924 9.91206 17.5691 9.43317 17.6488C8.95434 17.7286 8.6309 18.1814 8.71071 18.6602L9.58961 23.9337Z"/>
<path d="M29.4116 10.6055H26.3184L19.5511 2.14628C19.2479 1.76735 18.6948 1.70577 18.3157 2.00905C17.9367 2.31227 17.8752 2.86534 18.1785 3.24438L24.0673 10.6055H6.51371L12.4026 3.24438C12.7058 2.86534 12.6444 2.31222 12.2654 2.00905C11.8863 1.70577 11.3332 1.76729 11.0301 2.14628L4.26266 10.6055H1.16943C0.684043 10.6055 0.290527 10.999 0.290527 11.4844V15C0.290527 15.4854 0.684043 15.8789 1.16943 15.8789H2.26432L5.59783 27.5461C5.70559 27.9235 6.05047 28.1836 6.44287 28.1836H24.1382C24.5306 28.1836 24.8755 27.9235 24.9833 27.5461L28.3167 15.8789H29.4116C29.897 15.8789 30.2905 15.4854 30.2905 15V11.4844C30.2905 10.999 29.897 10.6055 29.4116 10.6055ZM23.4753 26.4258H7.1058L4.09244 15.8789H26.4887L23.4753 26.4258ZM28.5327 14.1211C25.5219 14.1211 4.90068 14.1211 2.04834 14.1211V12.3633H28.5327V14.1211Z"/>
<path d="M15.2905 24.668C15.7759 24.668 16.1694 24.2745 16.1694 23.7891V18.5156C16.1694 18.0302 15.7759 17.6367 15.2905 17.6367C14.8051 17.6367 14.4116 18.0302 14.4116 18.5156V23.7891C14.4116 24.2745 14.8051 24.668 15.2905 24.668Z" />
</g>
</svg>
