<svg width="110" height="80" viewBox="0 0 110 80" fill="none" xmlns="http://www.w3.org/2000/svg">
<path d="M84.8387 66.1625L84.8355 66.1625C79.5339 66.0648 74.2505 66.732 69.1474 68.1393C81.5003 67.0557 93.9462 68.9078 105.465 73.5583L105.549 11.6209H100.954V64.8235C100.955 64.9517 100.946 65.0799 100.927 65.2067C100.927 65.2067 100.927 65.2067 100.927 65.2068L100.68 65.1692C100.503 66.3333 99.4158 67.134 98.2516 66.9573L84.8387 66.1625ZM84.8387 66.1625C89.3165 66.1875 93.7865 66.5357 98.2141 67.2044L84.8387 66.1625ZM9.0677 6.83521H2.1322C0.81662 6.83521 -0.25 7.90183 -0.25 9.2174V77.3197C-0.25 78.6353 0.816619 79.7019 2.1322 79.7019H2.13293C2.54086 79.7007 2.94169 79.5948 3.29703 79.3941C3.30122 79.3919 3.30677 79.3889 3.31368 79.3853C4.15739 78.9383 25.2069 67.7876 54.4165 75.1528L54.4466 75.1604H54.4776H54.7974H54.9747C55.1596 75.1815 55.3462 75.1809 55.531 75.1586L55.547 75.1566L55.5625 75.1527C70.4435 71.3793 83.1967 72.3947 92.244 74.3763C96.7677 75.3671 100.364 76.5994 102.836 77.595C104.072 78.0927 105.027 78.5311 105.675 78.8502C105.999 79.0098 106.245 79.1393 106.412 79.231C106.495 79.277 106.557 79.3128 106.598 79.3376C106.606 79.3424 106.612 79.3466 106.618 79.3502L106.626 79.362L106.677 79.3913C107.414 79.8168 108.322 79.8168 109.059 79.3913C109.791 78.9684 110.245 78.1886 110.25 77.3426V77.3411V9.23873C110.25 7.92317 109.184 6.85653 107.868 6.85653H107.868H107.868H107.868H107.867H107.867H107.867H107.867H107.867H107.867H107.867H107.867H107.867H107.867H107.867H107.867H107.866H107.866H107.866H107.866H107.866H107.866H107.866H107.866H107.866H107.866H107.866H107.866H107.865H107.865H107.865H107.865H107.865H107.865H107.865H107.865H107.865H107.865H107.865H107.865H107.864H107.864H107.864H107.864H107.864H107.864H107.864H107.864H107.864H107.864H107.864H107.864H107.863H107.863H107.863H107.863H107.863H107.863H107.863H107.863H107.863H107.863H107.863H107.862H107.862H107.862H107.862H107.862H107.862H107.862H107.862H107.862H107.862H107.862H107.862H107.861H107.861H107.861H107.861H107.861H107.861H107.861H107.861H107.861H107.861H107.861H107.861H107.86H107.86H107.86H107.86H107.86H107.86H107.86H107.86H107.86H107.86H107.86H107.86H107.859H107.859H107.859H107.859H107.859H107.859H107.859H107.859H107.859H107.859H107.859H107.859H107.858H107.858H107.858H107.858H107.858H107.858H107.858H107.858H107.858H107.858H107.858H107.858H107.857H107.857H107.857H107.857H107.857H107.857H107.857H107.857H107.857H107.857H107.857H107.857H107.856H107.856H107.856H107.856H107.856H107.856H107.856H107.856H107.856H107.856H107.856H107.856H107.855H107.855H107.855H107.855H107.855H107.855H107.855H107.855H107.855H107.855H107.855H107.855H107.854H107.854H107.854H107.854H107.854H107.854H107.854H107.854H107.854H107.854H107.854H107.854H107.853H107.853H107.853H107.853H107.853H107.853H107.853H107.853H107.853H107.853H107.853H107.853H107.852H107.852H107.852H107.852H107.852H107.852H107.852H107.852H107.852H107.852H107.852H107.852H107.851H107.851H107.851H107.851H107.851H107.851H107.851H107.851H107.851H107.851H107.851H107.851H107.85H107.85H107.85H107.85H107.85H107.85H107.85H107.85H107.85H107.85H107.85H107.85H107.85H107.849H107.849H107.849H107.849H107.849H107.849H107.849H107.849H107.849H107.849H107.849H107.849H107.848H107.848H107.848H107.848H107.848H107.848H107.848H107.848H107.848H107.848H107.848H107.848H107.847H107.847H107.847H107.847H107.847H107.847H107.847H107.847H107.847H107.847H107.847H107.847H107.846H100.868V4.63799C100.909 3.54635 100.203 2.56598 99.1529 2.26092L99.153 2.26084L99.1465 2.25915C94.1076 0.938674 88.9188 0.276548 83.7097 0.289367C75.2111 0.289413 63.6121 2.18725 54.9695 10.8436C46.3872 2.10218 34.7016 0.289411 26.2263 0.289367C21.0172 0.276548 15.8284 0.938674 10.7895 2.25915L10.7895 2.25907L10.7831 2.26092C9.73353 2.56598 9.02662 3.54637 9.0677 4.63801V6.83521ZM11.85 67.2258L11.8501 67.2257C16.2493 66.554 20.6907 66.1986 25.1406 66.1625L25.1429 66.1625C30.4215 66.071 35.6811 66.7391 40.7611 68.1427C28.4318 67.0687 16.0111 68.9194 4.51439 73.5582V11.6209H9.11034V64.845C9.09625 66.16 10.1504 67.2377 11.4655 67.2526C11.594 67.2541 11.7227 67.2451 11.85 67.2258ZM25.1386 61.4194H25.138C21.3441 61.428 17.5544 61.6661 13.7894 62.1324V6.5184C17.8606 5.62604 22.0154 5.17058 26.1836 5.16037C34.1083 5.1604 44.9829 6.97918 52.5433 15.4533L52.6066 68.0129C48.0235 65.118 39.4006 61.4194 25.1386 61.4194ZM96.1253 6.51849V62.1319C92.3821 61.6612 88.614 61.4161 84.8413 61.3981H84.8401C70.6532 61.3981 62.0115 65.1007 57.3715 67.9953V15.4539C64.9326 7.06318 75.8082 5.16044 83.7309 5.16037C87.8989 5.17267 92.0538 5.62791 96.1253 6.51849Z" />
</svg>
