<svg width="30" height="30" viewBox="0 0 30 30" fill="none" xmlns="http://www.w3.org/2000/svg">
<g clip-path="url(#clip0)">
<path d="M26.5624 29.9999H3.43758C1.54129 29.9999 0 28.4586 0 26.5623V5.93735C0 4.04106 1.54129 2.5 3.43758 2.5H26.5624C28.4587 2.5 30 4.04106 30 5.93735V26.5623C30 28.4586 28.4587 29.9999 26.5624 29.9999ZM3.43758 4.375C2.57629 4.375 1.875 5.07607 1.875 5.93735V26.5623C1.875 27.4236 2.57629 28.1249 3.43758 28.1249H26.5624C27.4237 28.1249 28.125 27.4236 28.125 26.5623V5.93735C28.125 5.07607 27.4237 4.375 26.5624 4.375H3.43758Z"/>
<path d="M29.0625 11.875H0.9375C0.419998 11.875 0 11.455 0 10.9375C0 10.42 0.419998 10 0.9375 10H29.0625C29.58 10 30 10.42 30 10.9375C30 11.455 29.58 11.875 29.0625 11.875Z"/>
<path d="M7.1875 7.5C6.67 7.5 6.25 7.08 6.25 6.5625V0.9375C6.25 0.419998 6.67 0 7.1875 0C7.705 0 8.125 0.419998 8.125 0.9375V6.5625C8.125 7.08 7.705 7.5 7.1875 7.5Z"/>
<path d="M22.8125 7.5C22.295 7.5 21.875 7.08 21.875 6.5625V0.9375C21.875 0.419998 22.295 0 22.8125 0C23.33 0 23.75 0.419998 23.75 0.9375V6.5625C23.75 7.08 23.33 7.5 22.8125 7.5Z"/>
</g>
</svg>
