<svg width="45" height="57" viewBox="0 0 45 57" fill="none" xmlns="http://www.w3.org/2000/svg">
<path d="M8.76849 49.5988C4.42765 47.4439 2.64924 42.1592 4.80414 37.8183L17.9178 11.402C20.791 5.61424 27.8373 3.24302 33.6251 6.11622C39.4129 8.98942 41.7841 16.0357 38.9109 21.8235L25.7972 48.2398L23.1731 46.9371L36.2868 20.5208C38.4417 16.18 36.6632 10.8953 32.3224 8.74035C27.9816 6.58546 22.6968 8.36387 20.5419 12.7047L7.42827 39.121C5.99167 42.0149 7.17728 45.538 10.0712 46.9746C12.9651 48.4112 16.4882 47.2256 17.9248 44.3317L28.4331 23.1637C29.1514 21.7168 28.5586 19.9552 27.1117 19.2369C25.6647 18.5186 23.9031 19.1114 23.1848 20.5583L12.6765 41.7264L10.0524 40.4237L20.5607 19.2557C21.9973 16.3618 25.5205 15.1762 28.4144 16.6128C31.3082 18.0494 32.4939 21.5725 31.0573 24.4664L20.5489 45.6344C18.394 49.9753 13.1093 51.7537 8.76849 49.5988Z"/>
</svg>
