<svg width="50" height="50" viewBox="0 0 50 50" fill="none" xmlns="http://www.w3.org/2000/svg">
<g clip-path="url(#clip0)">
<path d="M48.8663 9.21847H28.9976C28.5203 7.01083 26.4916 5.28052 24.1647 5.28052C21.778 5.28052 19.8091 6.95116 19.3317 9.21847H1.07399C0.477327 9.21847 0 9.69579 0 10.2925C0 10.8891 0.477327 11.3664 1.07399 11.3664H19.2721C19.7494 13.5741 21.778 15.3044 24.105 15.3044C26.4916 15.3044 28.4606 13.6337 28.9379 11.3664H48.8663C49.463 11.3664 49.9403 10.8891 49.9403 10.2925C49.9403 9.69579 49.463 9.21847 48.8663 9.21847ZM24.1647 13.2161C22.6134 13.2161 21.3007 11.9631 21.3007 10.3521C21.3007 8.74114 22.5537 7.48815 24.1647 7.48815C25.716 7.48815 27.0286 8.74114 27.0286 10.3521C27.0286 11.9034 25.7757 13.2161 24.1647 13.2161Z"/>
<path d="M48.926 23.956H18.7948C18.3174 21.7484 16.2888 20.0181 13.9618 20.0181C11.5752 20.0181 9.6062 21.6887 9.12888 23.956H1.07399C0.477327 23.956 0 24.4333 0 25.03C0 25.6267 0.477327 26.104 1.07399 26.104H9.12888C9.6062 28.3116 11.6348 30.0419 13.9618 30.0419C16.3484 30.0419 18.3174 28.3713 18.7948 26.104H48.926C49.5227 26.104 50 25.6267 50 25.03C50 24.4333 49.5227 23.956 48.926 23.956ZM13.9618 27.894C12.4105 27.894 11.0979 26.641 11.0979 25.03C11.0979 23.4787 12.4105 22.166 13.9618 22.166C15.5131 22.166 16.8258 23.419 16.8258 25.03C16.8258 26.5813 15.5728 27.894 13.9618 27.894Z" fill="#E9E9E9"/>
<path d="M48.8663 38.6335H39.4988C39.0215 36.4259 36.9928 34.6956 34.6659 34.6956C32.2792 34.6956 30.3103 36.3662 29.8329 38.6335H1.07399C0.477327 38.6335 0 39.1108 0 39.7075C0 40.3042 0.477327 40.7815 1.07399 40.7815H29.7733C30.2506 42.9891 32.2792 44.7194 34.6062 44.7194C36.9928 44.7194 38.9618 43.0488 39.4391 40.7815H48.8663C49.463 40.7815 49.9403 40.3042 49.9403 39.7075C49.9403 39.1108 49.463 38.6335 48.8663 38.6335ZM34.6062 42.6311C33.0549 42.6311 31.7422 41.3781 31.7422 39.7672C31.7422 38.1562 33.0549 36.9032 34.6062 36.9032C36.1575 36.9032 37.4702 38.1562 37.4702 39.7672C37.4702 41.3781 36.2172 42.6311 34.6062 42.6311Z" />
</g>
</svg>
