<svg width="33" height="40" viewBox="0 0 33 40" fill="none" xmlns="http://www.w3.org/2000/svg">
<path d="M27.1245 14.4841C29.0785 11.9933 30.7699 10.5775 32.2846 10.1624C32.5636 10.0858 32.7796 9.8639 32.8497 9.58252C32.9191 9.30181 32.8316 9.00504 32.6207 8.80639C28.2043 4.66216 23.6309 6.78778 19.5958 8.66416C15.5972 10.5231 12.1313 12.1205 8.59361 9.02213V7.17448C9.59676 6.42263 10.1941 5.25434 10.1941 3.98861C10.1941 2.63432 9.51641 1.38466 8.38915 0.649902C7.0988 -0.210331 5.32534 -0.218195 4.01379 0.635884C2.87285 1.37201 2.19144 2.62577 2.19144 3.98861C2.19144 5.26186 2.79148 6.43357 3.79189 7.17824V38.3993H1.20435C0.762613 38.3993 0.404297 38.7576 0.404297 39.1997C0.404297 39.6418 0.762613 40.0001 1.20435 40.0001H11.1811C11.6229 40.0001 11.9812 39.6418 11.9812 39.1997C11.9812 38.7576 11.6229 38.3993 11.1811 38.3993H8.59361V25.5618C10.0255 26.5096 11.4663 26.8778 12.8931 26.8778C15.4416 26.8778 17.9454 25.7133 20.2704 24.6325C24.3636 22.7305 27.8989 21.0869 31.5248 24.4913C31.8056 24.7528 32.2316 24.7812 32.5417 24.5559C32.8525 24.3309 32.9602 23.9176 32.7984 23.5699C31.0913 19.8968 29.231 16.916 27.1245 14.4841ZM6.99315 38.3993H5.39235V7.89898C5.6563 7.95368 5.92333 7.98992 6.19275 7.98992C6.46457 7.98992 6.73125 7.95402 6.99315 7.90069V38.3993ZM7.44925 6.02841L7.38463 6.06978C6.68509 6.48554 5.78417 6.51905 4.95608 6.04482L4.88223 5.99696C4.19944 5.55624 3.79189 4.80508 3.79189 3.98861C3.79189 3.1718 4.19944 2.42097 4.88496 1.97855C5.27713 1.72314 5.72981 1.58775 6.19275 1.58775C6.66253 1.58775 7.11487 1.72383 7.5084 1.98641C8.18777 2.42884 8.59361 3.17727 8.59361 3.98861C8.59361 4.79961 8.18777 5.54838 7.44925 6.02841ZM19.5954 23.1815C15.5972 25.0407 12.1313 26.6385 8.59361 23.5394V11.0329C12.5843 13.6748 16.6445 11.8018 20.2704 10.1162C23.9865 8.38824 27.2411 6.87463 30.5251 9.15821C28.9445 9.99896 27.2996 11.5854 25.4482 14.0379C25.2164 14.3449 25.2358 14.7733 25.4947 15.0585C27.131 16.8589 28.6173 19.001 30 21.555C26.4246 20.0069 22.8367 21.674 19.5954 23.1815Z" />
</svg>
