<svg width="40" height="40" viewBox="0 0 40 40" fill="none" xmlns="http://www.w3.org/2000/svg">
<path d="M4.98336 36.9612H19.9336C20.6589 36.9612 21.2447 37.547 21.2447 38.2723C21.2447 38.9976 20.6589 39.5834 19.9336 39.5834H4.98336C2.42916 39.5834 0.35 37.5042 0.35 34.95V5.04972C0.35 2.49551 2.42917 0.416284 4.98336 0.416284H19.9336C20.6588 0.416284 21.2447 1.0022 21.2447 1.72753C21.2447 2.45283 20.6589 3.03863 19.9336 3.03863H4.98336C3.8732 3.03863 2.97227 3.93946 2.97227 5.04972V34.9501C2.97227 36.0603 3.8731 36.9612 4.98336 36.9612Z" />
<path d="M29.1591 9.0993L29.1595 9.09966L39.2588 19.0661C39.2589 19.0662 39.259 19.0663 39.259 19.0664C39.5102 19.3151 39.65 19.6492 39.65 19.9999C39.65 20.3507 39.5087 20.6866 39.2589 20.9337C39.2589 20.9338 39.2589 20.9338 39.2588 20.9338L29.1595 30.9003L29.1591 30.9007C28.9052 31.1519 28.5731 31.2779 28.2392 31.2779C27.9011 31.2779 27.563 31.1471 27.3053 30.8868C26.7981 30.3711 26.8028 29.5416 27.3187 29.0334L27.319 29.0332L34.5365 21.9103L35.1436 21.3112H34.2907H14.9502C14.2249 21.3112 13.6391 20.7253 13.6391 20C13.6391 19.2747 14.2249 18.6889 14.9502 18.6889H34.2907H35.1436L34.5365 18.0898L27.319 10.9669L27.3187 10.9666C26.8021 10.4579 26.7968 9.62831 27.3055 9.11309C27.8149 8.5972 28.6462 8.59161 29.1591 9.0993Z"/>
</svg>
