<svg width="31" height="30" viewBox="0 0 31 30" fill="none" xmlns="http://www.w3.org/2000/svg">
<path d="M27.2872 25.7322C32.509 19.7093 30.6921 10.346 23.5903 6.69334C21.5393 2.72162 17.3938 0 12.6243 0C5.82365 0 0.290998 5.53301 0.290998 12.334C0.290998 15.3281 1.35084 18.1598 3.29317 20.4002L0.552502 23.1049C-0.00296694 23.6531 0.381818 24.6056 1.16569 24.6094L7.7842 24.6409C10.065 27.9597 13.8327 30 17.9561 30C17.9645 30 29.408 29.9415 29.4147 29.9414C30.196 29.9377 30.5851 28.9869 30.0279 28.4369L27.2872 25.7322ZM5.13963 19.8057C3.14645 17.8088 2.04869 15.1553 2.04869 12.334C2.04869 6.50227 6.79291 1.75781 12.6243 1.75781C18.4556 1.75781 23.1999 6.50227 23.1999 12.334C23.1999 17.9222 18.7776 22.9552 12.2813 22.9045L3.30137 22.8617L5.13494 21.0522C5.4817 20.7099 5.48375 20.1505 5.13963 19.8057ZM17.9561 28.2422C14.8721 28.2422 12.0055 26.9245 10.0128 24.6515C13.3588 24.6735 12.4705 24.668 12.6243 24.668C20.558 24.668 26.4821 17.226 24.6178 9.45603C29.4791 13.4272 29.8772 20.6931 25.4407 25.1377C25.0965 25.4825 25.0987 26.042 25.4454 26.3842L27.279 28.1937C27.272 28.1937 17.9629 28.2422 17.9561 28.2422Z"/>
<path d="M7.3808 9.72656H17.9271C18.4125 9.72656 18.806 9.33305 18.806 8.84766C18.806 8.36227 18.4125 7.96875 17.9271 7.96875H7.3808C6.89541 7.96875 6.50195 8.36227 6.50195 8.84766C6.50195 9.33305 6.89547 9.72656 7.3808 9.72656Z"/>
<path d="M7.3808 13.2422H17.9271C18.4125 13.2422 18.806 12.8487 18.806 12.3633C18.806 11.8779 18.4125 11.4844 17.9271 11.4844H7.3808C6.89541 11.4844 6.50195 11.8779 6.50195 12.3633C6.50195 12.8487 6.89547 13.2422 7.3808 13.2422Z"/>
<path d="M7.3808 16.7578H17.9271C18.4125 16.7578 18.806 16.3643 18.806 15.8789C18.806 15.3935 18.4125 15 17.9271 15H7.3808C6.89541 15 6.50195 15.3935 6.50195 15.8789C6.50195 16.3643 6.89547 16.7578 7.3808 16.7578Z"/>
</svg>
