<svg width="25" height="30" viewBox="0 0 25 30" fill="none" xmlns="http://www.w3.org/2000/svg">
<path d="M23.6696 23.8742C23.5814 23.817 22.9177 23.352 22.2531 21.9455C21.0327 19.3625 20.7765 15.724 20.7765 13.1265C20.7765 13.1152 20.7763 13.104 20.7759 13.0927C20.7626 9.65977 18.7069 6.70043 15.7653 5.37264V3.34195C15.7653 1.49918 14.2686 0 12.4288 0H12.1523C10.3126 0 8.81588 1.49918 8.81588 3.34195V5.37252C5.86439 6.70459 3.80464 9.67904 3.80464 13.1265C3.80464 15.724 3.54847 19.3625 2.32802 21.9455C1.66351 23.352 0.999821 23.8169 0.911578 23.8742C0.539977 24.0462 0.356754 24.4434 0.442242 24.846C0.528551 25.2526 0.90859 25.5329 1.32361 25.5329H7.76582C7.80179 28.0021 9.81707 30 12.2906 30C14.7641 30 16.7794 28.0021 16.8154 25.5329H23.2576C23.6726 25.5329 24.0527 25.2526 24.139 24.846C24.2243 24.4434 24.0412 24.0461 23.6696 23.8742ZM10.5737 3.34195C10.5737 2.47002 11.2819 1.76068 12.1524 1.76068H12.4289C13.2994 1.76068 14.0075 2.47002 14.0075 3.34195V4.80193C13.4528 4.68727 12.8785 4.62691 12.2904 4.62691C11.7024 4.62691 11.1283 4.68721 10.5738 4.80176V3.34195H10.5737ZM12.2906 28.2393C10.7863 28.2393 9.55931 27.0313 9.52363 25.533H15.0575C15.0219 27.0312 13.7949 28.2393 12.2906 28.2393ZM15.8297 23.7722C15.8295 23.7722 3.32664 23.7722 3.32664 23.7722C3.47869 23.5352 3.63343 23.2669 3.78724 22.9637C4.96521 20.6409 5.56252 17.3312 5.56252 13.1265C5.56252 9.41062 8.58062 6.3876 12.2903 6.3876C16 6.3876 19.0181 9.41062 19.0181 13.1294C19.0181 13.1402 19.0183 13.151 19.0187 13.1618C19.022 17.3496 19.6193 20.6474 20.794 22.9637C20.9478 23.267 21.1026 23.5352 21.2546 23.7722H15.8297Z" />
</svg>
