<svg width="100" height="100" viewBox="0 0 100 100" fill="none" xmlns="http://www.w3.org/2000/svg">
<g clip-path="url(#clip0)">
<path d="M99.1769 12.6211C99.1175 12.5653 87.3712 1.36311 87.3712 1.36311C86.9222 0.932251 86.4577 0.486938 85.5906 0.486938H38.3015C36.9202 0.486938 35.7964 1.61057 35.7964 2.99182V10.6838L19.1294 13.5408C17.7935 13.7752 16.895 15.0537 17.1265 16.3883L17.9724 21.3203C12.555 23.1434 6.99309 25.0227 1.62375 26.9514C0.355001 27.4153 -0.310819 28.826 0.141915 30.1024L10.8226 59.793C11.0374 60.3904 11.6005 60.7625 12.2011 60.7625C12.3655 60.7625 12.5331 60.7346 12.6968 60.6756C13.4581 60.4018 13.8532 59.5627 13.5794 58.8014L3.05676 29.5498C8.11535 27.7387 13.354 25.966 18.4738 24.2428L23.5072 53.5875L29.2989 87.3828C29.5081 88.5758 30.5568 89.4246 31.7404 89.4246C31.8743 89.4246 32.0103 89.4137 32.1466 89.3912L47.8333 86.6992L60.0911 84.5981L41.6554 91.2244L27.1173 96.4516L15.8267 65.0475C15.553 64.2861 14.7142 63.891 13.9527 64.1647C13.1913 64.4383 12.7962 65.2774 13.0698 66.0387L24.5206 97.8891C24.8868 98.8906 25.8357 99.5133 26.8386 99.5133C27.1157 99.5133 27.3972 99.4656 27.6714 99.3654L42.6462 93.9815L76.649 81.76L83.1449 80.6465H97.4947C98.8759 80.6465 99.9997 79.5203 99.9997 78.136V14.2717C99.9999 13.3949 99.5242 12.9477 99.1769 12.6211ZM95.2958 12.968H87.9658L87.7841 12.9688C87.4331 12.9711 86.6115 12.9772 86.4031 12.7701C86.355 12.7223 86.2988 12.5625 86.2988 12.2658L86.2818 4.37229L95.2958 12.968ZM97.0702 77.7164H38.7261V49.1682C38.7261 48.3592 38.0702 47.7033 37.2613 47.7033C36.4523 47.7033 35.7964 48.3592 35.7964 49.1682V78.1356C35.7964 79.5197 36.9202 80.6461 38.3015 80.6461H65.8038L47.338 83.8113L32.1072 86.4252L26.3947 53.0922L20.0921 16.3481L35.7962 13.6561V42.3713C35.7962 43.1803 36.4521 43.8362 37.2611 43.8362C38.07 43.8362 38.7259 43.1803 38.7259 42.3713V3.41643H83.3499L83.3691 12.2692C83.3691 13.3422 83.6954 14.2102 84.339 14.8492C85.3279 15.8311 86.7257 15.8994 87.5935 15.8994C87.6681 15.8994 87.7388 15.8989 87.805 15.8985L97.0702 15.8979V77.7164Z"/>
<path d="M45.787 23.2323C45.787 24.0413 46.4428 24.6971 47.2518 24.6971H89.1339C89.9429 24.6971 90.5987 24.0413 90.5987 23.2323C90.5987 22.4233 89.9429 21.7675 89.1339 21.7675H47.2518C46.4428 21.7675 45.787 22.4233 45.787 23.2323Z"/>
<path d="M89.1339 32.1741H47.2518C46.4428 32.1741 45.787 32.8299 45.787 33.6389C45.787 34.4479 46.4428 35.1038 47.2518 35.1038H89.1339C89.9429 35.1038 90.5987 34.4479 90.5987 33.6389C90.5987 32.8299 89.9429 32.1741 89.1339 32.1741Z"/>
<path d="M89.1339 42.5807H47.2518C46.4428 42.5807 45.787 43.2365 45.787 44.0455C45.787 44.8545 46.4428 45.5104 47.2518 45.5104H89.1339C89.9429 45.5104 90.5987 44.8545 90.5987 44.0455C90.5987 43.2365 89.9429 42.5807 89.1339 42.5807Z"/>
<path d="M89.1339 52.9873H47.2518C46.4428 52.9873 45.787 53.6432 45.787 54.4521C45.787 55.2611 46.4428 55.917 47.2518 55.917H89.1339C89.9429 55.917 90.5987 55.2611 90.5987 54.4521C90.5987 53.6432 89.9429 52.9873 89.1339 52.9873Z"/>
<path d="M89.1339 63.3942H47.2518C46.4428 63.3942 45.787 64.05 45.787 64.859C45.787 65.668 46.4428 66.3238 47.2518 66.3238H89.1339C89.9429 66.3238 90.5987 65.668 90.5987 64.859C90.5987 64.05 89.9429 63.3942 89.1339 63.3942Z"/>
</g>
</svg>
