<svg width="40" height="40" viewBox="0 0 40 40" fill="none" xmlns="http://www.w3.org/2000/svg">
<path fill-rule="evenodd" clip-rule="evenodd" d="M20 0C20.664 0 21.2647 0.394168 21.529 1.00333L23.7305 6.07773L28.1742 2.78392C28.7077 2.3885 29.4249 2.34748 30 2.67949C30.5751 3.0115 30.8982 3.6532 30.8225 4.31289L30.1918 9.80819L35.6871 9.17753C36.3468 9.10183 36.9885 9.42494 37.3205 10C37.6525 10.5751 37.6115 11.2923 37.2161 11.8258L33.9223 16.2695L38.9967 18.471C39.6058 18.7353 40 19.336 40 20C40 20.664 39.6058 21.2647 38.9967 21.529L33.9223 23.7305L37.2161 28.1742C37.6115 28.7077 37.6525 29.4249 37.3205 30C36.9885 30.5751 36.3468 30.8982 35.6871 30.8225L30.1918 30.1918L30.8225 35.6871C30.8982 36.3468 30.5751 36.9885 30 37.3205C29.4249 37.6525 28.7077 37.6115 28.1742 37.2161L23.7305 33.9223L21.529 38.9967C21.2647 39.6058 20.664 40 20 40C19.336 40 18.7353 39.6058 18.471 38.9967L16.2695 33.9223L11.8258 37.2161C11.2923 37.6115 10.5751 37.6525 10 37.3205C9.42494 36.9885 9.10183 36.3468 9.17753 35.6871L9.80819 30.1918L4.31289 30.8225C3.6532 30.8982 3.0115 30.5751 2.67949 30C2.34748 29.4249 2.3885 28.7077 2.78392 28.1742L6.07773 23.7305L1.00333 21.529C0.394168 21.2647 0 20.664 0 20C0 19.336 0.394168 18.7353 1.00333 18.471L6.07773 16.2695L2.78392 11.8258C2.3885 11.2923 2.34748 10.5751 2.67949 10C3.0115 9.42494 3.6532 9.10183 4.31289 9.17753L9.80819 9.80819L9.17753 4.31289C9.10183 3.6532 9.42494 3.0115 10 2.67949C10.5751 2.34748 11.2923 2.3885 11.8258 2.78392L16.2695 6.07773L18.471 1.00333C18.7353 0.394168 19.336 0 20 0ZM16.9632 8.66647L10.8333 4.12287L11.7033 11.7033L4.12287 10.8333L8.66647 16.9632L1.66667 20L8.66647 23.0368L4.12287 29.1667L11.7033 28.2967L10.8333 35.8771L16.9632 31.3335L20 38.3333L23.0368 31.3335L29.1667 35.8771L28.2967 28.2967L35.8771 29.1667L31.3335 23.0368L38.3333 20L31.3335 16.9632L35.8771 10.8333L28.2967 11.7033L29.1667 4.12287L23.0368 8.66647L20 1.66667L16.9632 8.66647Z" />
<path d="M23.4607 27.4999H26.4507V26.7416H26.1257C25.3673 26.7416 25.0423 26.6333 25.0423 25.2249V24.2499C25.0423 22.1483 25.0857 20.5016 23.1357 20.0683V19.8516C23.1357 19.8516 26.1257 19.4183 26.1257 16.2983C26.1257 14.6733 25.4757 12.3549 21.7923 12.3333H14.209V27.4999H15.834V20.4583H19.9073C23.5257 20.4583 23.4607 21.7149 23.4607 24.0333V27.4999ZM15.834 13.6333H21.8573C23.9807 13.6333 24.609 15.0416 24.609 16.2983C24.609 17.5549 23.9807 19.1583 21.2073 19.1583H15.834V13.6333Z"/>
</svg>
