<svg width="50" height="44" viewBox="0 0 50 44" fill="none" xmlns="http://www.w3.org/2000/svg">
<path d="M47.0221 17.5405L6.68085 0.801347C4.98134 0.0960738 3.06142 0.406328 1.67021 1.61063C0.278996 2.81512 -0.30284 4.67088 0.151848 6.45389L4.11611 22L0.151848 37.5461C-0.30284 39.3291 0.278899 41.1848 1.67011 42.3893C3.06396 43.5962 4.98437 43.9025 6.68085 43.1986L47.0221 26.4595C48.8588 25.6973 49.9998 23.9886 49.9998 22C49.9998 20.0114 48.8588 18.3026 47.0221 17.5405ZM45.8991 23.7534L5.558 40.4926C4.87958 40.7739 4.14316 40.6552 3.58779 40.1743C3.03251 39.6935 2.80937 38.9817 2.99081 38.2699L6.76611 23.4648H21.3232C22.1323 23.4648 22.7882 22.809 22.7882 21.9999C22.7882 21.1908 22.1323 20.5349 21.3232 20.5349H6.7662L2.99081 5.73006C2.80937 5.01834 3.03251 4.30643 3.58779 3.82566C4.14306 3.3449 4.87929 3.22596 5.5579 3.5074L45.8991 20.2466C46.9855 20.6973 47.07 21.7026 47.07 22C47.07 22.2973 46.9855 23.3026 45.8991 23.7534Z" />
</svg>
