<svg width="40" height="40" viewBox="0 0 40 40" fill="none" xmlns="http://www.w3.org/2000/svg">
<path d="M39.0503 25.625L34.8405 22.1012C34.9478 21.3664 34.9999 20.6755 34.9999 20C34.9999 19.3245 34.9478 18.6336 34.8404 17.8988L39.0503 14.375C39.3611 14.1154 39.4401 13.6702 39.2374 13.3195L35.4044 6.68047C35.2017 6.33055 34.7778 6.17594 34.3969 6.31422L29.248 8.1957C28.1469 7.33391 26.9238 6.62992 25.6013 6.09852L24.6541 0.689141C24.5841 0.290547 24.2374 0 23.833 0H16.167C15.7625 0 15.4158 0.290547 15.3459 0.689297L14.3986 6.09867C13.0762 6.63008 11.8531 7.33406 10.752 8.19586L5.60298 6.3143C5.22455 6.17352 4.79728 6.32977 4.59548 6.68055L0.762437 13.3195C0.559781 13.6703 0.638765 14.1155 0.949625 14.375L5.15939 17.8988C5.05205 18.6336 4.99994 19.3245 4.99994 20C4.99994 20.6755 5.05205 21.3664 5.15947 22.1012L0.949625 25.625C0.638765 25.8846 0.559781 26.3298 0.762437 26.6805L4.59548 33.3195C4.79892 33.6702 5.22697 33.8248 5.60298 33.6857L10.7519 31.8042C11.853 32.666 13.0761 33.37 14.3985 33.9014L15.3458 39.3108C15.4158 39.7095 15.7624 40.0001 16.1669 40.0001H23.8329C24.2374 40.0001 24.5841 39.7095 24.654 39.3108L25.6013 33.9014C26.9237 33.37 28.1468 32.666 29.2479 31.8042L34.3968 33.6857C34.7752 33.8216 35.2017 33.6702 35.4043 33.3195L39.2374 26.6805C39.44 26.3298 39.3611 25.8846 39.0503 25.625ZM34.3106 31.8799L29.3757 30.0766C29.0974 29.9732 28.7817 30.0294 28.5546 30.2206C27.3852 31.2013 26.0465 31.9711 24.5751 32.5098C24.296 32.6124 24.0917 32.8557 24.0404 33.1487L23.133 38.3334H16.8667L15.9593 33.1487C15.9081 32.8557 15.7038 32.6123 15.4246 32.5098C13.9533 31.9711 12.6145 31.2013 11.4451 30.2206C11.2172 30.0294 10.9039 29.9732 10.624 30.0766L5.68908 31.8799L2.55595 26.4535L6.59158 23.0754C6.81947 22.8849 6.92853 22.5871 6.87806 22.2941C6.73564 21.4738 6.6665 20.7235 6.6665 20C6.6665 19.2765 6.73564 18.5262 6.87806 17.7059C6.92853 17.4129 6.81947 17.115 6.59158 16.9246L2.55595 13.5465L5.68908 8.12008L10.624 9.92344C10.9039 10.0268 11.2173 9.97062 11.4451 9.77938C12.6145 8.79875 13.9532 8.02891 15.4246 7.49016C15.7038 7.38758 15.9081 7.1443 15.9593 6.85133L16.8667 1.66656H23.133L24.0404 6.85133C24.0917 7.1443 24.296 7.38766 24.5751 7.49016C26.0464 8.02891 27.3852 8.79875 28.5546 9.77938C28.7817 9.97062 29.0974 10.0268 29.3757 9.92344L34.3106 8.12008L37.4438 13.5465L33.4081 16.9246C33.1803 17.1151 33.0712 17.4129 33.1217 17.7059C33.2641 18.5262 33.3332 19.2765 33.3332 20C33.3332 20.7235 33.2641 21.4738 33.1217 22.2941C33.0712 22.5871 33.1803 22.885 33.4081 23.0754L37.4438 26.4535L34.3106 31.8799Z" />
<path d="M19.9999 11.6666C15.4051 11.6666 11.6665 15.4052 11.6665 20C11.6665 24.5948 15.4052 28.3334 19.9999 28.3334C24.5946 28.3334 28.3332 24.5948 28.3332 20C28.3332 15.4052 24.5946 11.6666 19.9999 11.6666ZM19.9999 26.6666C16.3239 26.6666 13.3332 23.6759 13.3332 20C13.3332 16.3241 16.3239 13.3333 19.9999 13.3333C23.6758 13.3333 26.6665 16.3241 26.6665 20C26.6665 23.6759 23.6758 26.6666 19.9999 26.6666Z" />
</svg>
