<svg width="42" height="42" viewBox="0 0 42 42" fill="none" xmlns="http://www.w3.org/2000/svg">
<path d="M37.6308 34.6351L35.7552 11.0006C35.6383 9.47789 34.3506 8.28507 32.8235 8.28507H29.1187V8.11855C29.1187 3.64194 25.4768 0 21.0001 0C16.5235 0 12.8816 3.64194 12.8816 8.11855V8.28507H9.1769C7.64972 8.28507 6.36191 9.47781 6.24543 10.9974L4.36921 34.6383C4.22402 36.5311 4.88068 38.4156 6.1707 39.8084C7.46072 41.2011 9.28944 42 11.1879 42H30.8123C32.7107 42 34.5395 41.2012 35.8296 39.8084C37.1196 38.4156 37.7762 36.5311 37.6308 34.6351ZM15.3417 8.11855C15.3417 4.99849 17.8802 2.46012 21.0001 2.46012C24.1201 2.46012 26.6586 4.99857 26.6586 8.11855V8.28507H15.3417V8.11855ZM34.0247 38.1367C33.1865 39.0415 32.0457 39.5399 30.8123 39.5399H11.188C9.95455 39.5399 8.81383 39.0415 7.97563 38.1367C7.13752 37.2319 6.72786 36.0562 6.82203 34.8296L8.69808 11.1887C8.71711 10.9399 8.92744 10.7452 9.1769 10.7452H12.8816V13.775C12.8816 14.4543 13.4324 15.0051 14.1117 15.0051C14.791 15.0051 15.3417 14.4543 15.3417 13.775V10.7452H26.6586V13.775C26.6586 14.4543 27.2093 15.0051 27.8886 15.0051C28.5679 15.0051 29.1187 14.4543 29.1187 13.775V10.7452H32.8235C33.0728 10.7452 33.2832 10.94 33.3025 11.1919L35.1782 34.8264C35.2725 36.0562 34.8628 37.2318 34.0247 38.1367Z"/>
<path d="M22.2 26.82H19.16V28.42H23.56V29.64H19.16V32.3H17.5V29.64H16V28.42H17.5V26.76H16V25.42H17.5V19H22.2C23.3867 19 24.36 19.3667 25.12 20.1C25.88 20.8333 26.26 21.7733 26.26 22.92C26.26 24.0533 25.88 24.9867 25.12 25.72C24.36 26.4533 23.3867 26.82 22.2 26.82ZM24.6 22.92C24.6 22.2133 24.3533 21.6267 23.86 21.16C23.38 20.6933 22.7733 20.46 22.04 20.46H19.16V25.36H22.04C22.7733 25.36 23.38 25.1267 23.86 24.66C24.3533 24.1933 24.6 23.6133 24.6 22.92Z"/>
</svg>
