<svg width="21" height="20" viewBox="0 0 21 20" fill="none" xmlns="http://www.w3.org/2000/svg">
<path d="M9.73334 0.92705C10.0327 0.00573945 11.3361 0.00573993 11.6354 0.927051L13.3183 6.10644C13.4522 6.51847 13.8362 6.79743 14.2694 6.79743H19.7153C20.6841 6.79743 21.0868 8.03704 20.3031 8.60644L15.8973 11.8075C15.5468 12.0621 15.4001 12.5135 15.534 12.9255L17.2169 18.1049C17.5162 19.0262 16.4617 19.7923 15.678 19.2229L11.2722 16.0219C10.9217 15.7673 10.4471 15.7673 10.0966 16.0219L5.69075 19.2229C4.90704 19.7923 3.85256 19.0262 4.15191 18.1049L5.8348 12.9255C5.96867 12.5135 5.82201 12.0621 5.47153 11.8075L1.06567 8.60644C0.281958 8.03704 0.684733 6.79743 1.65346 6.79743H7.09939C7.53262 6.79743 7.91657 6.51847 8.05045 6.10644L9.73334 0.92705Z" />
</svg>
