<svg width="512" height="512" viewBox="0 0 512 512" fill="none" xmlns="http://www.w3.org/2000/svg">
<g clip-path="url(#clip0)">
<path d="M256 256C185.422 256 128 198.578 128 128C128 57.4206 185.422 0 256 0C326.578 0 384 57.4215 384 128C384 198.579 326.578 256 256 256V256ZM256 32.0003C203.063 32.0003 160 75.0623 160 128C160 180.939 203.062 224.001 256 224.001C308.938 224.001 352 180.938 352 128C352 75.0632 308.937 32.0003 256 32.0003V32.0003Z" />
<path d="M463.999 512H47.9996C39.1555 512 31.9994 504.844 31.9994 496V385.859C31.9994 369.328 40.4524 353.797 54.0465 345.296C174.202 270.343 337.906 270.359 457.938 345.281C471.547 353.796 480.001 369.328 480.001 385.858V495.999C480.001 504.844 472.844 512 463.999 512V512ZM63.9998 480.001H448V385.859C448 380.282 445.313 375.125 440.984 372.422C331.125 303.844 180.953 303.797 71.0007 372.438C66.6883 375.126 64.0007 380.282 64.0007 385.86L63.9998 480.001Z" />
</g>
</svg>
