<svg width="30" height="30" viewBox="0 0 30 30" fill="none" xmlns="http://www.w3.org/2000/svg">
<mask id="mask0" mask-type="alpha" maskUnits="userSpaceOnUse" x="0" y="0" width="30" height="30">
<circle cx="15" cy="15" r="15" fill="#C4C4C4"/>
</mask>
<g mask="url(#mask0)">
<path d="M1.87562 2.04112C-0.481885 4.48987 0.000615276 7.09113 0.000615276 14.9936C0.000615276 21.5561 -1.14438 28.1349 4.84811 29.6836C6.71936 30.1649 23.2994 30.1649 25.1681 29.6811C27.6631 29.0374 29.6931 27.0136 29.9706 23.4849C30.0094 22.9924 30.0094 7.00362 29.9694 6.50112C29.6744 2.74237 27.3606 0.576125 24.3119 0.137375C23.6131 0.0361249 23.4731 0.00612489 19.8881 -0.00012511C7.17186 0.00612489 4.38437 -0.560125 1.87562 2.04112Z" fill="url(#paint0_linear)"/>
<path d="M14.7857 5.58083C10.836 5.58083 7.08534 5.22976 5.65274 8.90352C5.061 10.4208 5.14693 12.3914 5.14693 15.213C5.14693 17.689 5.06752 20.0161 5.65274 21.5215C7.08208 25.1974 10.8632 24.8452 14.7835 24.8452C18.5657 24.8452 22.4653 25.2387 23.9153 21.5215C24.5082 19.9889 24.4212 18.0477 24.4212 15.213C24.4212 11.4501 24.6289 9.0209 22.8025 7.19706C20.9533 5.34932 18.4526 5.58083 14.7813 5.58083H14.7857ZM13.922 7.31663C22.1608 7.30358 23.2094 6.3884 22.6307 19.102C22.4251 23.5986 18.9986 23.1051 14.7868 23.1051C7.10709 23.1051 6.88628 22.8855 6.88628 15.2087C6.88628 7.44271 7.49543 7.32097 13.922 7.31445V7.31663ZM19.9308 8.91547C19.2923 8.91547 18.7745 9.43284 18.7745 10.0709C18.7745 10.7089 19.2923 11.2262 19.9308 11.2262C20.5694 11.2262 21.0871 10.7089 21.0871 10.0709C21.0871 9.43284 20.5694 8.91547 19.9308 8.91547ZM14.7857 10.2665C12.0521 10.2665 9.83631 12.4816 9.83631 15.213C9.83631 17.9444 12.0521 20.1585 14.7857 20.1585C17.5192 20.1585 19.7339 17.9444 19.7339 15.213C19.7339 12.4816 17.5192 10.2665 14.7857 10.2665ZM14.7857 12.0023C19.0334 12.0023 19.0389 18.4238 14.7857 18.4238C10.539 18.4238 10.5325 12.0023 14.7857 12.0023Z" fill="white"/>
</g>
<defs>
<linearGradient id="paint0_linear" x1="1.93314" y1="28.0837" x2="29.815" y2="3.95235" gradientUnits="userSpaceOnUse">
<stop stop-color="#FFDD55"/>
<stop offset="0.5" stop-color="#FF543E"/>
<stop offset="1" stop-color="#C837AB"/>
</linearGradient>
</defs>
</svg>
